Coordinates
version=1
nRows=6
nColumns=36
inDegrees=yes

Units are S.I. units (second, meters, Newtons, ...)
If the header above contains a line with 'inDegrees', this indicates whether rotational values are in degrees (yes) or radians (no).

endheader
time	pelvis_tilt	pelvis_list	pelvis_rotation	pelvis_tx	pelvis_ty	pelvis_tz	hip_flexion_r	hip_adduction_r	hip_rotation_r	knee_angle_r	knee_angle_r_beta	ankle_angle_r	subtalar_angle_r	mtp_angle_r	hip_flexion_l	hip_adduction_l	hip_rotation_l	knee_angle_l	knee_angle_l_beta	ankle_angle_l	subtalar_angle_l	mtp_angle_l	lumbar_extension	lumbar_bending	lumbar_rotation	arm_flex_r	arm_add_r	arm_rot_r	elbow_flex_r	pro_sup_r	arm_flex_l	arm_add_l	arm_rot_l	elbow_flex_l	pro_sup_l
      7.41666670	      4.21224270	      2.45267250	     -6.64458622	      0.17991659	      0.83325513	      0.14628702	     11.66002178	      6.77252862	     -4.88949049	     30.71316269	      0.53604581	     10.45144319	     -3.84999167	     -7.49999987	     29.75869185	     -2.73314615	      1.69844068	     16.98329865	      0.29641448	     -0.64528568	      0.53539188	     -7.49999987	     -2.79504663	      2.63556233	      1.02702377	     41.35023741	      5.07732806	     66.60716580	    128.51395629	     83.22517240	     26.73419799	      4.68731389	     58.85393651	    124.85157527	     72.83228940
      7.43333330	      4.73898983	      2.26815499	     -6.55507967	      0.18029807	      0.83519443	      0.14761651	     12.25143251	      6.90946976	     -4.54887316	     32.83759825	      0.57312421	     10.18761302	     -4.44113896	     -7.49999987	     29.80526325	     -2.88748173	      1.68150804	     17.07164230	      0.29795637	     -0.98990451	      0.60531125	     -7.49999987	     -3.50120617	      2.76752623	      0.70294893	     41.45816856	      5.12819663	     66.73237718	    128.22039327	     83.34489300	     26.61062281	      4.69626988	     58.91752020	    124.71076935	     72.98386409
      7.45000000	      4.97491044	      2.21833450	     -6.41523504	      0.17797259	      0.82944193	      0.14610712	     13.08195560	      7.03297357	     -4.13446128	     34.95319537	      0.61004834	     10.89033527	     -5.14272898	     -7.49999987	     30.39961472	     -2.87297643	      1.29751020	     17.20070209	      0.30020889	     -1.39074902	      0.69628457	     -7.49999987	     -3.88163896	      2.84683134	      0.45227366	     41.39604451	      5.14853974	     67.00155532	    128.16140433	     82.71126953	     26.36995471	      4.58780124	     58.87430273	    124.84110929	     72.65236328
      7.46666670	      5.32311291	      2.21822155	     -6.29225962	      0.17947996	      0.81851813	      0.14638968	     13.95343440	      7.09679432	     -3.80775825	     37.62345888	      0.65665323	     12.18564992	     -6.07903572	     -7.49999987	     31.00270933	     -2.87617194	      1.27840922	     17.40095139	      0.30370389	     -1.33526989	      0.89203381	     -7.49999987	     -4.38137060	      2.83294895	      0.33973615	     41.81809127	      5.25082672	     67.00930809	    127.75967970	     82.50615806	     26.37876603	      4.66959495	     59.02302654	    124.73558756	     72.63181871
      7.48333330	      5.32362948	      2.28585541	     -6.20253917	      0.18059963	      0.81263559	      0.14557803	     15.16502886	      7.39904235	     -2.80281499	     39.80227411	      0.69468073	     14.31723335	     -5.64893558	     -7.49999987	     31.99435333	     -2.86306296	      1.05354102	     17.70954011	      0.30908978	     -1.23047403	      0.95512831	     -7.49999987	     -4.57968192	      2.71350850	      0.00894143	     41.88223059	      5.25823311	     67.34221699	    127.80705341	     82.78111837	     26.26289248	      4.47032018	     59.10798322	    124.61341974	     72.84847081
      7.50000000	      5.20315858	      2.17786789	     -6.08623135	      0.17954215	      0.81144103	      0.14623985	     16.14692925	      7.68265929	     -2.71104897	     41.77976303	      0.72919443	     15.73816019	     -6.68890975	     -7.49999987	     32.83242218	     -2.96925460	      1.01905026	     17.43394361	      0.30427972	     -1.68757681	      1.13623754	     -7.49999987	     -4.53451820	      2.79831734	     -0.10629038	     41.55469242	      5.00483918	     67.34119662	    127.86952290	     81.44759656	     25.75701152	      4.56457951	     59.16151043	    124.52521095	     71.96415130
